<svg width="72" height="52" fill="none" xmlns="http://www.w3.org/2000/svg">
  <path d="m7.77 23.38 2.64-1.3 4.18-6.29 1.28-.52 1.37 6.37-1.8.26-1.36-2.62-1.02 4.1h4.52l4.7 1.22 1.87-1.22 3.16 3.32 1.36-6.1 2.22 2.26 1.37-1.92 2.21-.61 3.25-3.05.5-1.49 2.65.44 1.11 1.48-1.96 4.19 4.87-2.53v-1.22l1.87-.44 2.05 2.1 2.05-2.53v-1.75l3.33-2.36 1.36-2h2.14l3.75-7.77L64.68 0l1.2 1.92L64 4.36l.68 1.57 1.8.35 1.45 6.46v5.4l2.56 3.58 1.28 4.98-4.44-2.88-1.96-8.29-1.2.26-.17 5.59-3.24 5.32-.94 8.11 2.22.53.94-1.14 2.13 2.44 1.62 7.33-.17 4.71h-2.05l-.77-6.63-1.45 2.01-3.15-.7-2.56-2.18-2.9 1.05.17 4.71-2.3.61-3.42 2.62-4.1-.53-1.62-.96-2.56.44.85 1.05-2.04 1.22-1.63-.79-3.07 1.4-4.7-2.36-1.78-4.18-1.54.17-1.8-1.48-.08-1.14-5.71-.6-.94 3.13-3.59-1.65-1.79-3.06H8.2l-.42 4.89-2.22.7-1.11 4.45-.86-.79L0 40.74l4.27-2.09-.69-4.1-.68-4.19 1.88-2.7-.6-1.66 2.56-2.8 1.03.18Zm56.74 10.3 3.93 5.93 1.28-.52-1.62-2.45-3.59-3.83v.87Zm-40.1-12.04v-1.75l2.98-2.18 2.56-1.3h-2.98l-2.65 1.56-1.62 1.49v2.18h1.7Z" fill="#fff"/>
</svg>
